<?xml version="1.0" standalone="no"?>
<!DOCTYPE svg PUBLIC "-//W3C//DTD SVG 20010904//EN"
 "http://www.w3.org/TR/2001/REC-SVG-20010904/DTD/svg10.dtd">
<svg version="1.0" xmlns="http://www.w3.org/2000/svg"
 width="475.000000pt" height="475.000000pt" viewBox="0 0 475.000000 475.000000"
 preserveAspectRatio="xMidYMid meet">
<metadata>
Created by potrace 1.14, written by Peter Selinger 2001-2017
</metadata>
<g transform="translate(0.000000,475.000000) scale(0.100000,-0.100000)"
fill="#000000" stroke="none">
<path d="M3385 4128 c-11 -6 -26 -19 -33 -27 -12 -16 -62 -117 -62 -126 0 -3
-9 -27 -21 -53 -35 -80 -45 -104 -84 -197 -40 -94 -65 -131 -97 -141 -42 -13
-42 -90 -1 -113 10 -5 43 -12 73 -14 86 -8 92 -13 86 -61 -6 -43 -12 -80 -21
-131 -12 -64 -19 -121 -20 -147 0 -16 -3 -28 -6 -28 -3 0 -6 -21 -8 -47 -1
-26 -5 -50 -9 -53 -4 -3 -8 -21 -8 -40 -1 -19 -4 -53 -8 -75 -4 -22 -9 -56
-12 -75 -2 -19 -7 -46 -10 -60 -3 -13 -7 -40 -10 -59 -2 -19 -7 -48 -10 -65
-3 -17 -7 -40 -9 -51 -2 -11 -7 -33 -10 -50 -3 -16 -7 -39 -9 -50 -21 -138
-22 -145 -34 -176 -6 -15 -9 -29 -6 -31 2 -3 -5 -47 -16 -99 -11 -52 -23 -107
-26 -124 -2 -16 -7 -37 -9 -45 -2 -8 -7 -28 -10 -45 -7 -44 -14 -76 -22 -110
-4 -16 -8 -38 -9 -47 -1 -10 -2 -19 -4 -20 -2 -3 -10 -37 -14 -58 -8 -48 -20
-87 -28 -97 -6 -7 -8 -13 -4 -13 10 0 -32 -108 -81 -207 -25 -51 -49 -93 -54
-93 -5 0 -9 -7 -9 -16 0 -9 -27 -42 -59 -74 -47 -45 -70 -60 -110 -70 -66 -16
-106 -3 -167 56 -26 24 -51 44 -56 44 -4 0 -8 3 -8 8 0 4 -15 23 -33 43 -17
20 -47 55 -66 78 -123 149 -245 271 -271 271 -6 0 -10 5 -10 11 0 5 -5 7 -10
4 -6 -3 -10 -2 -10 3 0 11 -39 23 -85 27 -16 2 -49 -6 -73 -16 -45 -19 -156
-125 -167 -159 -4 -11 -11 -20 -16 -20 -5 0 -9 -5 -9 -10 0 -6 -11 -27 -23
-48 -13 -20 -35 -57 -49 -82 -14 -25 -36 -63 -48 -85 -61 -106 -80 -141 -86
-157 -6 -16 -33 -32 -41 -24 -3 2 -6 10 -7 18 -2 7 -9 27 -15 43 -18 42 -57
187 -76 280 -7 36 -9 44 -18 70 -6 20 -16 82 -21 142 -8 83 -51 122 -101 89
-21 -14 -30 -35 -27 -66 10 -122 44 -342 62 -415 6 -22 13 -47 15 -55 2 -8 4
-16 5 -17 2 -2 3 -6 4 -10 4 -26 41 -111 55 -127 9 -10 15 -21 13 -25 -4 -11
53 -80 73 -86 100 -34 141 -2 236 185 30 58 57 107 62 108 4 2 7 9 7 15 0 15
126 215 161 254 33 39 69 62 93 58 32 -6 135 -108 296 -295 64 -75 171 -184
187 -192 4 -2 26 -14 48 -28 47 -29 62 -33 140 -33 65 0 72 2 126 25 90 39
198 160 261 293 12 28 26 51 30 53 4 2 4 10 1 18 -3 8 0 14 6 14 6 0 11 7 11
15 0 8 11 39 24 70 14 30 23 55 21 55 -2 0 5 26 16 57 11 32 21 66 24 78 6 28
14 65 21 97 3 15 5 30 5 33 0 2 5 19 10 37 5 18 12 49 15 68 3 19 7 43 10 52
6 20 12 52 20 98 8 47 12 65 14 65 2 0 3 7 13 70 10 58 21 117 31 164 2 10 7
36 10 57 6 35 25 151 41 244 3 19 8 53 10 75 3 22 7 51 11 65 3 14 8 39 10 55
2 17 6 46 9 65 4 19 8 51 11 70 4 36 11 75 14 75 1 0 3 25 5 55 3 30 9 56 14
58 6 2 7 12 1 27 -5 12 -7 25 -4 28 7 7 28 128 33 190 1 15 12 17 91 17 152 0
182 31 137 142 -22 57 -37 107 -43 148 -1 8 -5 35 -9 60 -4 25 -8 54 -10 65
-2 11 -4 20 -5 20 -1 0 -3 11 -5 25 -1 14 -6 37 -9 53 -13 58 -18 83 -23 109
-11 61 -78 95 -128 66z m25 -272 c0 -2 7 -39 15 -82 8 -44 17 -92 20 -109 2
-16 7 -40 9 -52 5 -25 9 -24 -94 -26 -60 0 -65 1 -66 21 -1 12 3 22 9 22 6 0
7 3 4 6 -4 4 0 19 8 33 7 14 28 63 46 109 18 45 37 82 41 82 4 0 8 -2 8 -4z"/>
</g>
</svg>
