<svg viewBox="0 0 1000 200" xmlns="http://www.w3.org/2000/svg" class="sc-bmzYkS hzoRER">
    <defs>
        <clipPath id="cutoff-border">
            <path
                fill="#000"
                fill-rule="nonzero"
                d="M1045,65 L91.9838324,90.2753031 C42.1261592,91.2101345 0.950698684,51.5503351 0.0158673112,1.69266193 L0.00396691493,0.846368152 L0.00396691493,0.846368152 L0.00366508445,0.781970575 L0.00366508445,0.781970575 L0.0146600158,1.56387244 C0.878362914,47.628027 38.9209079,84.270233 84.9850625,83.4065301 L84.9850625,83.4065301 L1045,58 L1045,65 Z">
            </path>
        </clipPath>
    </defs>
    <path
        d="M1045,65 L91.9838324,90.2753031 C42.1261592,91.2101345 0.950698684,51.5503351 0.0158673112,1.69266193 L0.00396691493,0.846368152 L0.00396691493,0.846368152 L0.00366508445,0.781970575 L0.00366508445,0.781970575 L0.0146600158,1.56387244 C0.878362914,47.628027 38.9209079,84.270233 84.9850625,83.4065301 L84.9850625,83.4065301 L1045,58 L1045,65 Z"
        fill="#D1D1D4" fill-rule="nonzero"></path>

</svg>